<svg width="40" height="40" viewBox="0 0 40 40" fill="none" xmlns="http://www.w3.org/2000/svg">
<g clip-path="url(#clip0_4097_28662)">
<path d="M11.5465 17.3203C10.9765 17.3203 10.5137 17.786 10.5137 18.3596C10.5137 18.9331 10.9757 19.3988 11.5465 19.3988C12.1173 19.3988 12.5793 18.9331 12.5793 18.3596C12.5793 17.786 12.1165 17.3203 11.5465 17.3203Z" fill="white"/>
<path d="M21.751 17.2114C21.1367 17.2114 20.6387 17.7125 20.6387 18.3307C20.6387 18.9488 21.1367 19.4499 21.751 19.4499C22.3653 19.4499 22.8633 18.9488 22.8633 18.3307C22.8633 17.7125 22.3653 17.2114 21.751 17.2114Z" fill="white"/>
<path d="M30.9868 6.98828H9.01322C6.79695 6.98828 5 8.79644 5 11.0265V24.1494C5 26.3803 6.79695 28.1877 9.01322 28.1877H16.7744L19.4141 32.7989C19.4141 32.7989 19.5957 33.3412 20.036 33.3412C20.4762 33.3412 20.6579 32.7989 20.6579 32.7989L23.2976 28.1877H30.9876C33.2039 28.1877 35.0008 26.3795 35.0008 24.1494V11.0265C35.0008 8.79644 33.203 6.98828 30.9868 6.98828ZM14.425 18.5885C14.4125 20.987 11.9476 21.0561 11.9476 21.0561C10.9943 21.0561 10.4561 20.4202 10.4561 20.4202V20.8523H8.66086V13.4032C8.65333 13.4023 8.65249 13.4006 8.66086 13.399V13.4032C8.77218 13.4209 10.4561 13.399 10.4561 13.399V16.2481C10.878 15.5238 12.0991 15.5356 12.0991 15.5356C14.7573 15.7849 14.425 18.5885 14.425 18.5885ZM17.5854 15.7647V20.8649H15.8286V15.8152C15.8286 15.1288 14.9816 14.9376 14.9816 14.9376V13.1573C17.7879 13.2718 17.5854 15.7647 17.5854 15.7647ZM21.7509 21.0594C20.1239 21.0594 18.8057 19.8383 18.8057 18.3308C18.8057 16.8233 20.1247 15.6021 21.7509 15.6021C23.3771 15.6021 24.6962 16.8233 24.6962 18.3308C24.6962 19.8383 23.378 21.0594 21.7509 21.0594ZM31.3768 21.0594C31.3768 21.0594 31.4019 23.6508 28.7856 23.6508H27.9896V21.9715H28.47C28.47 21.9715 29.5698 22.0734 29.5572 20.3689C29.5572 20.3689 29.3421 21.0586 27.8005 21.0586C27.8005 21.0586 25.6135 20.9003 25.6135 18.7527V17.9383C25.6135 17.9383 25.6637 15.7124 28.0658 15.5347C28.0658 15.5347 29.0132 15.4328 29.5949 16.222V15.6754H31.3776L31.3768 21.0594Z" fill="white"/>
<path d="M28.5828 17.2368C27.9827 17.2368 27.4956 17.7261 27.4956 18.3308C27.4956 18.9355 27.9819 19.4248 28.5828 19.4248C29.1838 19.4248 29.67 18.9355 29.67 18.3308C29.67 17.7261 29.1829 17.2368 28.5828 17.2368Z" fill="white"/>
</g>
<defs>
<clipPath id="clip0_4097_28662">
<rect width="30" height="28" fill="white" transform="translate(5 6)"/>
</clipPath>
</defs>
</svg>
