<svg width="24" height="25" viewBox="0 0 24 25" fill="none" xmlns="http://www.w3.org/2000/svg">
<g clip-path="url(#clip0_4113_14721)">
<path d="M6.92779 11.4961C6.58581 11.4961 6.30811 11.7789 6.30811 12.1271C6.30811 12.4753 6.58531 12.758 6.92779 12.758C7.27028 12.758 7.54748 12.4753 7.54748 12.1271C7.54748 11.7789 7.26977 11.4961 6.92779 11.4961Z" fill="white"/>
<path d="M13.0507 11.4297C12.6821 11.4297 12.3833 11.7339 12.3833 12.1092C12.3833 12.4845 12.6821 12.7888 13.0507 12.7888C13.4193 12.7888 13.7181 12.4845 13.7181 12.1092C13.7181 11.7339 13.4193 11.4297 13.0507 11.4297Z" fill="white"/>
<path d="M18.5921 5.22266H5.40793C4.07817 5.22266 3 6.32047 3 7.67446V15.6419C3 16.9964 4.07817 18.0937 5.40793 18.0937H10.0646L11.6485 20.8934C11.6485 20.8934 11.7574 21.2227 12.0216 21.2227C12.2857 21.2227 12.3947 20.8934 12.3947 20.8934L13.9786 18.0937H18.5926C19.9223 18.0937 21.0005 16.9959 21.0005 15.6419V7.67446C21.0005 6.32047 19.9218 5.22266 18.5921 5.22266ZM8.655 12.2656C8.64747 13.7219 7.16856 13.7638 7.16856 13.7638C6.59659 13.7638 6.27369 13.3778 6.27369 13.3778V13.6401H5.19652V9.11741C5.192 9.1169 5.1915 9.11588 5.19652 9.11486V9.11741C5.26331 9.12815 6.27369 9.11486 6.27369 9.11486V10.8447C6.52678 10.4049 7.25946 10.4121 7.25946 10.4121C8.85437 10.5634 8.655 12.2656 8.655 12.2656ZM10.5512 10.5512V13.6477H9.49715V10.5818C9.49715 10.1651 8.98895 10.049 8.98895 10.049V8.96811C10.6727 9.03765 10.5512 10.5512 10.5512 10.5512ZM13.0506 13.7659C12.0743 13.7659 11.2834 13.0244 11.2834 12.1092C11.2834 11.1939 12.0748 10.4525 13.0506 10.4525C14.0263 10.4525 14.8177 11.1939 14.8177 12.1092C14.8177 13.0244 14.0268 13.7659 13.0506 13.7659ZM18.8261 13.7659C18.8261 13.7659 18.8411 15.3392 17.2713 15.3392H16.7938V14.3196H17.082C17.082 14.3196 17.7419 14.3815 17.7343 13.3466C17.7343 13.3466 17.6053 13.7654 16.6803 13.7654C16.6803 13.7654 15.3681 13.6692 15.3681 12.3653V11.8709C15.3681 11.8709 15.3982 10.5195 16.8395 10.4116C16.8395 10.4116 17.4079 10.3497 17.7569 10.8288V10.497H18.8266L18.8261 13.7659Z" fill="white"/>
<path d="M17.1499 11.4453C16.7898 11.4453 16.4976 11.7424 16.4976 12.1095C16.4976 12.4767 16.7893 12.7737 17.1499 12.7737C17.5104 12.7737 17.8022 12.4767 17.8022 12.1095C17.8022 11.7424 17.5099 11.4453 17.1499 11.4453Z" fill="white"/>
</g>
<defs>
<clipPath id="clip0_4113_14721">
<rect width="18" height="17" fill="white" transform="translate(3 5.22266)"/>
</clipPath>
</defs>
</svg>
