<svg width="24" height="25" viewBox="0 0 24 25" fill="none" xmlns="http://www.w3.org/2000/svg">
<path fill-rule="evenodd" clip-rule="evenodd" d="M11.9999 5.27734C12.7694 5.27734 13.5587 5.29714 14.3237 5.32954L15.2273 5.37274L16.0922 5.42404L16.9022 5.47894L17.642 5.53654C18.445 5.59764 19.2006 5.94013 19.7759 6.50368C20.3511 7.06722 20.709 7.81568 20.7866 8.61722L20.8226 8.99972L20.8901 9.81871C20.9531 10.6674 20.9999 11.5926 20.9999 12.4773C20.9999 13.362 20.9531 14.2872 20.8901 15.1359L20.8226 15.9549L20.7866 16.3374C20.709 17.1391 20.3509 17.8876 19.7755 18.4512C19.2001 19.0148 18.4442 19.3572 17.6411 19.4181L16.9031 19.4748L16.0931 19.5306L15.2273 19.5819L14.3237 19.6251C13.5496 19.6586 12.7748 19.676 11.9999 19.6773C11.2251 19.676 10.4503 19.6586 9.67616 19.6251L8.77256 19.5819L7.90767 19.5306L7.09767 19.4748L6.35788 19.4181C5.55492 19.357 4.79927 19.0145 4.22403 18.4509C3.6488 17.8874 3.29087 17.1389 3.2133 16.3374L3.1773 15.9549L3.1098 15.1359C3.04125 14.2513 3.00463 13.3645 3 12.4773C3 11.5926 3.0468 10.6674 3.1098 9.81871L3.1773 8.99972L3.2133 8.61722C3.29084 7.81583 3.64864 7.06748 4.22369 6.50395C4.79874 5.94042 5.55418 5.59785 6.35698 5.53654L7.09587 5.47894L7.90587 5.42404L8.77166 5.37274L9.67526 5.32954C10.4497 5.296 11.2248 5.27859 11.9999 5.27734ZM10.2 10.2948V14.6598C10.2 15.0756 10.65 15.3348 11.0099 15.1278L14.7899 12.9453C14.8722 12.8979 14.9405 12.8298 14.988 12.7476C15.0355 12.6654 15.0605 12.5722 15.0605 12.4773C15.0605 12.3824 15.0355 12.2892 14.988 12.207C14.9405 12.1248 14.8722 12.0566 14.7899 12.0093L11.0099 9.82771C10.9278 9.7803 10.8347 9.75535 10.7399 9.75537C10.645 9.75538 10.5519 9.78037 10.4698 9.8278C10.3877 9.87524 10.3195 9.94345 10.2722 10.0256C10.2248 10.1077 10.1999 10.2009 10.2 10.2957V10.2948Z" fill="white"/>
</svg>
