<svg width="122" height="45" viewBox="0 0 122 45" fill="none" xmlns="http://www.w3.org/2000/svg">
<path d="M8.97211 32.5718C7.33888 31.8341 5.99645 31.2383 5.99645 30.0324C5.99645 29.1103 6.76019 28.4407 8.26712 28.4407C8.8223 28.4407 9.27467 28.5031 9.74467 28.5883C9.99141 28.628 10.2528 28.6649 10.4673 28.6649C11.7833 28.6649 12.5265 27.9073 13.0229 26.466L13.2285 25.8787C13.017 25.7964 10.8668 24.8828 8.06149 24.8828C3.59654 24.8828 1.24069 27.6491 1.24069 30.5176C1.24069 31.9646 1.71068 33.0144 2.44505 33.84C3.39092 34.9011 4.73921 35.5991 6.00233 36.1921C7.84118 37.0631 9.50086 37.7072 9.50086 39.001C9.50086 40.1472 8.27593 40.7998 6.63682 40.7998C4.38966 40.7998 2.42742 39.5599 2.17774 39.4095L0.333008 42.749C0.662005 42.9277 3.03548 44.3861 6.94526 44.3861C11.1106 44.3861 14.2654 42.0766 14.2654 38.5272C14.2654 34.9778 11.3427 33.684 8.97211 32.5774V32.5718Z" fill="#EA002C"/>
<path d="M25.2673 34.2221L32.8254 25.2734H27.4411L21.4134 32.9964H21.3223V25.2734H16.8838V44.232H17.1482C19.0663 44.232 21.3517 43.3751 21.3517 40.2797V35.9273H21.4427L27.5879 43.9965H33.2367L25.2703 34.225L25.2673 34.2221Z" fill="#EA002C"/>
<path d="M33.0785 4.96875C31.5158 5.25248 29.1981 6.62287 29.2069 9.04588C29.2128 11.2448 31.0751 12.5783 31.081 15.4609C31.0898 17.6286 29.8532 19.0898 28.5137 19.8984C29.0542 19.853 29.6475 19.8218 30.2997 19.8218C31.6656 19.8189 32.491 19.9438 32.5409 19.9523L39.5497 11.6448C37.6022 8.83025 35.3286 6.64557 33.0756 4.96875H33.0785Z" fill="#EA002C"/>
<path d="M38.9654 27.4016C39.8496 26.0737 39.9583 23.96 40.0346 21.8065C40.1169 19.7977 40.5516 18.2855 43.3334 18.277C43.9503 18.277 44.5378 18.3564 45.6011 18.3536C49.6784 18.3365 52.3397 16.9803 53.9935 16.0894C50.6095 14.0069 45.6746 11.879 39.547 11.6406C39.1475 12.7273 36.0426 21.066 35.8076 21.7384C35.8429 21.7781 36.3863 22.3683 37.0649 23.5145C38.0665 25.092 38.6041 26.4255 38.9595 27.4016H38.9654Z" fill="#EA002C"/>
<path d="M24.1597 20.5956C23.8042 20.5956 23.628 20.3715 23.581 19.9743C23.5369 19.5827 21.7833 4.09132 21.5218 1.74492C21.4836 1.40161 21.3955 0.774576 21.3955 0.550433C21.3955 0.190102 21.6393 5.87512e-06 21.9243 5.87512e-06C22.7556 -0.00283138 27.2822 1.02142 32.085 4.27291C30.7014 4.65026 28.1958 6.04051 28.2075 8.92033C28.2163 11.4682 30.1051 12.8726 30.1169 15.429C30.1315 19.5884 25.1848 20.5928 24.1597 20.5956Z" fill="#FF7A00"/>
<path d="M39.3672 28.5103C39.4436 28.7033 39.5141 28.865 39.5846 28.9785C39.6962 29.1601 39.8401 29.2423 40.0164 29.2423C40.128 29.2423 40.2661 29.2055 40.4159 29.1402C40.786 28.9756 55.4234 22.3932 57.6324 21.4115C57.9526 21.264 58.5577 21.0001 58.7604 20.8866C58.9689 20.7731 59.0629 20.6057 59.0629 20.4355C59.0629 20.3419 59.0336 20.2454 58.9777 20.1575C58.7016 19.7262 57.2858 18.2735 54.9182 16.6875C53.0382 17.6862 50.1036 19.2325 45.7356 19.2495C44.6664 19.2495 44.4226 19.1814 43.6911 19.1843C41.5585 19.19 41.0269 20.0723 40.9505 21.8768C40.9387 22.2173 40.9299 22.6769 40.9094 23.1791C40.8418 24.7935 40.645 27.0179 39.3672 28.5075V28.5103Z" fill="#FF7A00"/>
<path d="M47.4499 44.2049C45.7021 44.2049 44.3832 43.7566 43.5078 43.2374L44.3832 41.3279C45.1851 41.85 46.1868 42.2529 47.2501 42.2529C48.3135 42.2529 49.0626 41.8074 49.0626 41.1123C49.0626 40.3207 47.8465 39.9263 46.9476 39.5802C45.6345 39.0723 44.1599 38.4141 44.1599 36.5103C44.1599 34.7342 45.6345 33.4688 48.1931 33.4688C50.1083 33.4688 51.4302 34.0447 51.5359 34.0929C51.5359 34.0929 51.4302 34.3994 51.3949 34.5129C51.2892 34.8675 51.016 35.7527 50.1436 35.7527C49.5179 35.7527 49.1331 35.4662 48.1696 35.4662C47.303 35.4662 46.7713 35.818 46.7713 36.3826C46.7713 37.0862 47.726 37.3813 48.7923 37.787C50.0084 38.2495 51.768 39.112 51.768 41.0017C51.768 43.3055 49.7441 44.2049 47.4499 44.2049Z" fill="#FF7A00"/>
<path d="M117.015 44.2049C115.268 44.2049 113.949 43.7566 113.073 43.2374L113.949 41.3279C114.751 41.85 115.752 42.2529 116.816 42.2529C117.879 42.2529 118.628 41.8074 118.628 41.1123C118.628 40.3207 117.412 39.9263 116.513 39.5802C115.2 39.0723 113.725 38.4141 113.725 36.5103C113.725 34.7342 115.2 33.4688 117.759 33.4688C119.674 33.4688 120.996 34.0447 121.101 34.0929C121.101 34.0929 120.996 34.3994 120.96 34.5129C120.855 34.8675 120.581 35.7527 119.709 35.7527C119.083 35.7527 118.698 35.4662 117.735 35.4662C116.868 35.4662 116.337 35.818 116.337 36.3826C116.337 37.0862 117.291 37.3813 118.358 37.787C119.574 38.2495 121.333 39.112 121.333 41.0017C121.333 43.3055 119.309 44.2049 117.015 44.2049Z" fill="#FF7A00"/>
<path d="M110.815 40.6258V33.666H108.101V40.9691C107.957 41.0996 107.008 41.9196 105.856 41.9196C104.631 41.9196 103.803 41.1904 103.803 39.7235V33.666H101.101V40.3222C101.101 43.4971 103.618 44.1979 105.034 44.1979C106.72 44.1979 107.933 43.1651 108.289 42.8275C108.4 43.2446 108.92 43.9681 110.107 43.9681C110.527 43.9681 111.07 43.8489 111.117 43.8404C111.038 43.4432 110.815 42.5069 110.815 40.6258Z" fill="#FF7A00"/>
<path d="M74.0618 37.7121C74.0618 36.5403 74.9196 35.4508 76.1092 35.4508C77.4487 35.4508 78.186 36.5687 78.2066 37.7121H74.0618ZM76.1504 33.4902C73.5566 33.4902 71.3652 35.5245 71.3652 38.8583C71.3652 42.1921 73.489 44.2065 76.6615 44.2065C79.1848 44.2065 80.489 43.1426 80.6506 43.0489C80.6506 43.0489 80.4038 42.6602 80.3333 42.5524C79.9838 41.9963 79.5784 41.8119 79.1319 41.8119C78.2389 41.8119 78.1214 42.1751 76.9141 42.1751C74.8373 42.1751 74.1176 40.6089 74.0677 39.5705H81.0148V38.7902C81.0148 35.5955 79.1055 33.4902 76.1504 33.4902Z" fill="#FF7A00"/>
<path d="M69.4316 30.5459C69.4316 31.4028 68.6914 32.0979 67.772 32.0979C66.8525 32.0979 66.1152 31.4028 66.1152 30.5459C66.1152 29.6891 66.8584 28.9883 67.772 28.9883C68.6855 28.9883 69.4316 29.6862 69.4316 30.5459Z" fill="#FF7A00"/>
<path d="M69.1018 33.6641H66.4346V43.9576H69.1018V33.6641Z" fill="#FF7A00"/>
<path d="M85.8548 41.0781V30.3873C85.8548 29.1815 85.0177 28.248 83.7222 28.248H83.1406V42.1279C83.1406 43.4046 83.9602 44.1991 85.3878 44.1991C87.1473 44.1991 87.6731 42.9904 87.6731 41.8555C87.5997 41.8924 87.2296 42.0399 86.8536 42.0399C86.225 42.0399 85.8548 41.6881 85.8548 41.0781Z" fill="#FF7A00"/>
<path d="M57.0064 34.8368C57.1944 34.6836 58.5662 33.4551 60.4726 33.4551C62.5611 33.4551 64.1033 34.5049 64.1033 37.0669V43.9558H61.3127V37.8018C61.3127 36.6697 60.6664 35.7902 59.4415 35.7902C58.2166 35.7902 57.2854 36.6782 57.0064 36.9024V43.9558H54.2393V28.2402H54.8268C56.1545 28.2402 57.0093 29.1709 57.0093 30.4107V34.8368H57.0064Z" fill="#FF7A00"/>
<path d="M94.7553 35.4715C95.4339 35.4715 95.9215 35.5935 96.086 35.6332V41.8837C95.9362 41.9092 95.4603 42.0426 94.7553 42.0426C93.0986 42.0426 91.6445 41.0041 91.6445 38.7599C91.6445 36.5156 92.9488 35.4715 94.7553 35.4715ZM94.4028 44.1961C96.7587 44.1961 98.5212 43.6286 98.8296 43.535V28.2422H98.3978C97.1405 28.2422 96.086 29.0565 96.086 30.6709V33.545C96.0096 33.5251 95.1783 33.3038 94.2178 33.3038C91.2597 33.3038 88.6982 35.0743 88.6982 38.8308C88.6982 41.9887 90.8015 44.1932 94.4058 44.1932L94.4028 44.1961Z" fill="#FF7A00"/>
</svg>
